<?xml version="1.0" encoding="utf-8"?>
<!-- Generator: Adobe Illustrator 25.2.0, SVG Export Plug-In . SVG Version: 6.00 Build 0)  -->
<svg version="1.1" id="katman_1" xmlns="http://www.w3.org/2000/svg" xmlns:xlink="http://www.w3.org/1999/xlink" x="0px" y="0px"
	 viewBox="0 0 560 400" style="enable-background:new 0 0 560 400;" xml:space="preserve">
<style type="text/css">
	.st0{fill-rule:evenodd;clip-rule:evenodd;fill:white;}
</style>
<path class="st0" d="M470,231.8h-34.39v-3.19h1.19c3.12,0,5.25-1.29,5.25-5.91v-29.35c0-5.21-1.8-7.77-6.71-7.77
	c-5.49,0-8.54,2.67-10.69,5.05v31.67c0,4.6,2.24,6.31,5.18,6.31h1.19v3.19H394.9v-3.19h1.2c3.32,0,6.71-1.57,6.71-5.58v-35.19
	c0-3.19-1.81-4.85-5.38-4.85h-1.06v-3.19h27.69v6.04h0.53c3.49-3.34,10.91-9.03,18.86-9.03c12.85,0,20.12,6.93,20.12,17.13v29.22
	c0,4.31,2.79,5.44,5.24,5.44h1.2L470,231.8z M335.14,224.43c-1.79,0.86-3.83,1.4-5.58,1.4c-4.68,0-9.03-1.52-9.03-6.57v-35.39h12.48
	v-4.12h-12.48V166.8h-4.52c-6.17,10.16-14.21,12.62-24.7,13.68v3.39h6.58v34.86c0,8.63,4.85,14.41,17.59,14.41
	c9.7,0,16.19-3.07,21.11-5.45L335.14,224.43z M292.52,214.87c0-9.96-5.62-15.42-17.73-19.46l-7.37-2.46
	c-5.31-1.77-8.57-2.99-8.57-6.64c0-3.72,3.69-5.51,9.63-5.51c11.55,0,15.27,4.12,17.4,11.35h2.99v-11.62
	c-4.98-2.06-12.08-3.92-20.58-3.92c-14.21,0-27.95,5.84-27.95,18.52c0,9.56,5.58,13.98,15.27,17.26l8.63,2.92
	c5.89,1.99,9.83,3.52,9.83,7.77c0,3.72-4.18,5.91-11.29,5.91c-11.95,0-18.19-4.51-20.45-14.14h-3.19v13.55
	c5.84,2.79,11.42,4.71,24.43,4.71C281.56,233.13,292.52,227.49,292.52,214.87 M374.52,204.18c0,15.6-3.53,25.5-10.29,25.5
	c-6.54,0-9.76-9-9.76-25.56c0-14.11,3.14-24.04,9.83-24.04C370.16,180.08,374.52,188.36,374.52,204.18 M397.76,204.18
	c0-19.31-16.98-28.02-33.4-28.02c-17.76,0-33.33,10.07-33.33,27.82c0,18.66,14.74,29.22,32.93,29.22
	C384.18,233.2,397.76,219.41,397.76,204.18 M214.5,204.18c0,15.6-3.4,25.5-10.16,25.5c-6.54,0-9.89-9-9.89-25.56
	c0-14.11,3.08-24.04,9.76-24.04C210.08,180.08,214.5,188.36,214.5,204.18 M237.74,204.18c0-19.31-16.98-28.02-33.4-28.02
	c-17.76,0-33.4,10.07-33.4,27.82c0,18.66,14.8,29.22,33,29.22C224.16,233.2,237.74,219.41,237.74,204.18 M141.72,213.28
	c0,8.02-3.52,14.34-13.88,14.34h-4.78V200.4h4.78C138.37,200.4,141.72,204.81,141.72,213.28 M141.13,183.73
	c0,7.13-3.82,12.42-13.54,12.42h-4.52v-25.03h4.38C136.88,171.12,141.13,175.86,141.13,183.73 M169.15,212.55
	c0-10.7-9.16-14.8-22.38-15.47v-0.73c10.62-1.48,18.59-5.38,18.59-14.94c0-10.21-14.59-14.61-31.67-14.61H90v2.79h1.2
	c3.04,0,6.18,0.81,6.18,4.45v49.6c0,3.86-2.83,4.98-6.18,4.98H90v3.19h47.81C157.86,231.8,169.15,223.47,169.15,212.55"/>
</svg>
