<svg xmlns="http://www.w3.org/2000/svg" xmlns:xlink="http://www.w3.org/1999/xlink" width="800" zoomAndPan="magnify" viewBox="0 0 600 599.999999" height="800" preserveAspectRatio="xMidYMid meet" version="1.0"><defs><g/></defs><g fill="#000000" fill-opacity="1"><g transform="translate(3.697432, 301.213949)"><g><path d="M 59.28125 -68.1875 C 53.351562 -68.1875 48.25 -65.988281 43.96875 -61.59375 C 39.695312 -57.207031 37.5625 -51.925781 37.5625 -45.75 C 37.5625 -39.457031 39.695312 -34.113281 43.96875 -29.71875 C 48.25 -25.332031 53.351562 -23.140625 59.28125 -23.140625 C 62.132812 -23.140625 64.835938 -23.492188 67.390625 -24.203125 C 69.941406 -24.921875 71.8125 -25.632812 73 -26.34375 L 74.59375 -27.421875 L 85.28125 -5.515625 C 84.445312 -4.921875 83.285156 -4.175781 81.796875 -3.28125 C 80.316406 -2.394531 76.9375 -1.179688 71.65625 0.359375 C 66.375 1.898438 60.707031 2.671875 54.65625 2.671875 C 41.238281 2.671875 29.457031 -2.046875 19.3125 -11.484375 C 9.164062 -20.921875 4.09375 -32.222656 4.09375 -45.390625 C 4.09375 -58.691406 9.164062 -70.117188 19.3125 -79.671875 C 29.457031 -89.222656 41.238281 -94 54.65625 -94 C 60.707031 -94 66.285156 -93.285156 71.390625 -91.859375 C 76.492188 -90.441406 80.113281 -89.019531 82.25 -87.59375 L 85.28125 -85.453125 L 74.59375 -63.90625 C 70.675781 -66.757812 65.570312 -68.1875 59.28125 -68.1875 Z M 59.28125 -68.1875 "/></g></g></g><g fill="#000000" fill-opacity="1"><g transform="translate(74.35748, 301.213949)"><g><path d="M 19.3125 -10.859375 C 9.164062 -19.878906 4.09375 -31.453125 4.09375 -45.578125 C 4.09375 -59.703125 9.375 -71.300781 19.9375 -80.375 C 30.5 -89.457031 43.554688 -94 59.109375 -94 C 74.421875 -94 87.328125 -89.425781 97.828125 -80.28125 C 108.328125 -71.144531 113.578125 -59.570312 113.578125 -45.5625 C 113.578125 -31.5625 108.441406 -20.019531 98.171875 -10.9375 C 87.910156 -1.863281 74.890625 2.671875 59.109375 2.671875 C 42.722656 2.671875 29.457031 -1.835938 19.3125 -10.859375 Z M 43.703125 -61.0625 C 39.609375 -57.03125 37.5625 -51.867188 37.5625 -45.578125 C 37.5625 -39.285156 39.519531 -34.148438 43.4375 -30.171875 C 47.351562 -26.203125 52.515625 -24.21875 58.921875 -24.21875 C 65.097656 -24.21875 70.171875 -26.234375 74.140625 -30.265625 C 78.117188 -34.296875 80.109375 -39.398438 80.109375 -45.578125 C 80.109375 -51.867188 78.0625 -57.03125 73.96875 -61.0625 C 69.875 -65.101562 64.859375 -67.125 58.921875 -67.125 C 52.867188 -67.125 47.796875 -65.101562 43.703125 -61.0625 Z M 43.703125 -61.0625 "/></g></g></g><g fill="#000000" fill-opacity="1"><g transform="translate(175.277065, 301.213949)"><g><path d="M 50.390625 -94 C 55.609375 -94 60.769531 -93.40625 65.875 -92.21875 C 70.976562 -91.03125 74.773438 -89.84375 77.265625 -88.65625 L 81 -86.875 L 70.671875 -66.234375 C 63.554688 -70.023438 56.796875 -71.921875 50.390625 -71.921875 C 46.828125 -71.921875 44.300781 -71.535156 42.8125 -70.765625 C 41.332031 -69.992188 40.59375 -68.539062 40.59375 -66.40625 C 40.59375 -65.925781 40.648438 -65.445312 40.765625 -64.96875 C 40.890625 -64.5 41.128906 -64.054688 41.484375 -63.640625 C 41.835938 -63.222656 42.160156 -62.867188 42.453125 -62.578125 C 42.753906 -62.285156 43.257812 -61.957031 43.96875 -61.59375 C 44.6875 -61.238281 45.25 -60.972656 45.65625 -60.796875 C 46.070312 -60.617188 46.753906 -60.351562 47.703125 -60 C 48.660156 -59.644531 49.375 -59.375 49.84375 -59.1875 C 50.320312 -59.007812 51.125 -58.742188 52.25 -58.390625 C 53.375 -58.035156 54.234375 -57.800781 54.828125 -57.6875 C 58.515625 -56.613281 61.722656 -55.421875 64.453125 -54.109375 C 67.179688 -52.804688 70.054688 -51.023438 73.078125 -48.765625 C 76.109375 -46.515625 78.453125 -43.671875 80.109375 -40.234375 C 81.773438 -36.796875 82.609375 -32.878906 82.609375 -28.484375 C 82.609375 -7.710938 68.1875 2.671875 39.34375 2.671875 C 32.8125 2.671875 26.609375 1.664062 20.734375 -0.34375 C 14.859375 -2.363281 10.617188 -4.382812 8.015625 -6.40625 L 4.09375 -9.609375 L 16.90625 -31.15625 C 17.863281 -30.320312 19.113281 -29.34375 20.65625 -28.21875 C 22.195312 -27.09375 24.984375 -25.550781 29.015625 -23.59375 C 33.054688 -21.632812 36.554688 -20.65625 39.515625 -20.65625 C 46.046875 -20.65625 49.3125 -22.847656 49.3125 -27.234375 C 49.3125 -29.253906 48.476562 -30.828125 46.8125 -31.953125 C 45.15625 -33.078125 42.335938 -34.351562 38.359375 -35.78125 C 34.390625 -37.207031 31.273438 -38.515625 29.015625 -39.703125 C 23.316406 -42.671875 18.804688 -46.023438 15.484375 -49.765625 C 12.160156 -53.503906 10.5 -58.457031 10.5 -64.625 C 10.5 -73.882812 14.085938 -81.09375 21.265625 -86.25 C 28.453125 -91.414062 38.160156 -94 50.390625 -94 Z M 50.390625 -94 "/></g></g></g><g fill="#000000" fill-opacity="1"><g transform="translate(246.115116, 301.213949)"><g><path d="M 10.6875 0 L 10.6875 -91.328125 L 42.1875 -91.328125 L 42.1875 -81.71875 L 42.546875 -81.71875 C 50.734375 -89.90625 59.457031 -94 68.71875 -94 C 75.363281 -94 81.59375 -92.632812 87.40625 -89.90625 C 93.226562 -87.175781 97.625 -82.960938 100.59375 -77.265625 C 109.84375 -88.421875 119.929688 -94 130.859375 -94 C 140.585938 -94 148.953125 -91.269531 155.953125 -85.8125 C 162.953125 -80.351562 166.453125 -71.804688 166.453125 -60.171875 L 166.453125 0 L 134.953125 0 L 134.953125 -51.625 C 134.953125 -56.488281 133.613281 -60.550781 130.9375 -63.8125 C 128.269531 -67.082031 124.265625 -68.71875 118.921875 -68.71875 C 114.296875 -68.71875 110.765625 -67.320312 108.328125 -64.53125 C 105.898438 -61.75 104.566406 -58.398438 104.328125 -54.484375 L 104.328125 0 L 72.8125 0 L 72.8125 -51.625 C 72.8125 -56.488281 71.472656 -60.550781 68.796875 -63.8125 C 66.128906 -67.082031 62.128906 -68.71875 56.796875 -68.71875 C 51.929688 -68.71875 48.28125 -67.203125 45.84375 -64.171875 C 43.40625 -61.148438 42.1875 -57.5625 42.1875 -53.40625 L 42.1875 0 Z M 10.6875 0 "/></g></g></g><g fill="#000000" fill-opacity="1"><g transform="translate(404.70581, 301.213949)"><g><path d="M 13.703125 -142.25 C 17.390625 -145.925781 21.78125 -147.765625 26.875 -147.765625 C 31.976562 -147.765625 36.367188 -145.925781 40.046875 -142.25 C 43.734375 -138.570312 45.578125 -134.179688 45.578125 -129.078125 C 45.578125 -123.972656 43.734375 -119.578125 40.046875 -115.890625 C 36.367188 -112.210938 31.976562 -110.375 26.875 -110.375 C 21.78125 -110.375 17.390625 -112.210938 13.703125 -115.890625 C 10.023438 -119.578125 8.1875 -123.972656 8.1875 -129.078125 C 8.1875 -134.179688 10.023438 -138.570312 13.703125 -142.25 Z M 10.6875 -91.328125 L 10.6875 0 L 42.1875 0 L 42.1875 -91.328125 Z M 10.6875 -91.328125 "/></g></g></g><g fill="#000000" fill-opacity="1"><g transform="translate(441.724365, 301.213949)"><g><path d="M 59.28125 -68.1875 C 53.351562 -68.1875 48.25 -65.988281 43.96875 -61.59375 C 39.695312 -57.207031 37.5625 -51.925781 37.5625 -45.75 C 37.5625 -39.457031 39.695312 -34.113281 43.96875 -29.71875 C 48.25 -25.332031 53.351562 -23.140625 59.28125 -23.140625 C 62.132812 -23.140625 64.835938 -23.492188 67.390625 -24.203125 C 69.941406 -24.921875 71.8125 -25.632812 73 -26.34375 L 74.59375 -27.421875 L 85.28125 -5.515625 C 84.445312 -4.921875 83.285156 -4.175781 81.796875 -3.28125 C 80.316406 -2.394531 76.9375 -1.179688 71.65625 0.359375 C 66.375 1.898438 60.707031 2.671875 54.65625 2.671875 C 41.238281 2.671875 29.457031 -2.046875 19.3125 -11.484375 C 9.164062 -20.921875 4.09375 -32.222656 4.09375 -45.390625 C 4.09375 -58.691406 9.164062 -70.117188 19.3125 -79.671875 C 29.457031 -89.222656 41.238281 -94 54.65625 -94 C 60.707031 -94 66.285156 -93.285156 71.390625 -91.859375 C 76.492188 -90.441406 80.113281 -89.019531 82.25 -87.59375 L 85.28125 -85.453125 L 74.59375 -63.90625 C 70.675781 -66.757812 65.570312 -68.1875 59.28125 -68.1875 Z M 59.28125 -68.1875 "/></g></g></g><g fill="#000000" fill-opacity="1"><g transform="translate(512.384431, 301.213949)"><g/></g></g><g fill="#000000" fill-opacity="1"><g transform="translate(544.241061, 301.213949)"><g><path d="M 30.984375 -38.09375 C 36.671875 -38.09375 41.503906 -36.101562 45.484375 -32.125 C 49.460938 -28.15625 51.453125 -23.320312 51.453125 -17.625 C 51.453125 -12.039062 49.460938 -7.257812 45.484375 -3.28125 C 41.503906 0.6875 36.671875 2.671875 30.984375 2.671875 C 25.398438 2.671875 20.617188 0.6875 16.640625 -3.28125 C 12.671875 -7.257812 10.6875 -12.039062 10.6875 -17.625 C 10.6875 -23.320312 12.671875 -28.15625 16.640625 -32.125 C 20.617188 -36.101562 25.398438 -38.09375 30.984375 -38.09375 Z M 30.984375 -38.09375 "/></g></g></g><g fill="#000000" fill-opacity="1"><g transform="translate(204.373439, 374.633207)"><g><path d="M 13 -21.46875 C 15.507812 -21.46875 17.375 -20.679688 18.59375 -19.109375 C 19.8125 -17.546875 20.421875 -15.523438 20.421875 -13.046875 L 20.421875 -1.25 C 20.421875 -0.882812 20.300781 -0.582031 20.0625 -0.34375 C 19.832031 -0.113281 19.535156 0 19.171875 0 C 18.816406 0 18.519531 -0.113281 18.28125 -0.34375 C 18.039062 -0.582031 17.921875 -0.882812 17.921875 -1.25 L 17.921875 -13.046875 C 17.921875 -14.859375 17.488281 -16.328125 16.625 -17.453125 C 15.769531 -18.578125 14.425781 -19.140625 12.59375 -19.140625 C 11.425781 -19.140625 10.320312 -18.859375 9.28125 -18.296875 C 8.238281 -17.742188 7.394531 -17 6.75 -16.0625 C 6.113281 -15.132812 5.796875 -14.128906 5.796875 -13.046875 L 5.796875 -1.25 C 5.796875 -0.882812 5.675781 -0.582031 5.4375 -0.34375 C 5.195312 -0.113281 4.898438 0 4.546875 0 C 4.179688 0 3.878906 -0.113281 3.640625 -0.34375 C 3.410156 -0.582031 3.296875 -0.882812 3.296875 -1.25 L 3.296875 -29.59375 C 3.296875 -29.957031 3.410156 -30.253906 3.640625 -30.484375 C 3.878906 -30.722656 4.179688 -30.84375 4.546875 -30.84375 C 4.898438 -30.84375 5.195312 -30.722656 5.4375 -30.484375 C 5.675781 -30.253906 5.796875 -29.957031 5.796875 -29.59375 L 5.796875 -17.390625 C 6.546875 -18.578125 7.585938 -19.550781 8.921875 -20.3125 C 10.253906 -21.082031 11.613281 -21.46875 13 -21.46875 Z M 13 -21.46875 "/></g></g></g><g fill="#000000" fill-opacity="1"><g transform="translate(255.234008, 374.633207)"><g><path d="M 22.96875 -10.671875 C 22.96875 -8.585938 22.507812 -6.695312 21.59375 -5 C 20.675781 -3.300781 19.410156 -1.972656 17.796875 -1.015625 C 16.179688 -0.0546875 14.390625 0.421875 12.421875 0.421875 C 10.453125 0.421875 8.660156 -0.0546875 7.046875 -1.015625 C 5.429688 -1.972656 4.164062 -3.300781 3.25 -5 C 2.332031 -6.695312 1.875 -8.585938 1.875 -10.671875 C 1.875 -12.753906 2.332031 -14.644531 3.25 -16.34375 C 4.164062 -18.039062 5.429688 -19.375 7.046875 -20.34375 C 8.660156 -21.3125 10.453125 -21.796875 12.421875 -21.796875 C 14.390625 -21.796875 16.179688 -21.3125 17.796875 -20.34375 C 19.410156 -19.375 20.675781 -18.039062 21.59375 -16.34375 C 22.507812 -14.644531 22.96875 -12.753906 22.96875 -10.671875 Z M 20.46875 -10.671875 C 20.46875 -12.335938 20.117188 -13.835938 19.421875 -15.171875 C 18.734375 -16.503906 17.769531 -17.550781 16.53125 -18.3125 C 15.289062 -19.082031 13.921875 -19.46875 12.421875 -19.46875 C 10.921875 -19.46875 9.554688 -19.082031 8.328125 -18.3125 C 7.109375 -17.550781 6.144531 -16.503906 5.4375 -15.171875 C 4.726562 -13.835938 4.375 -12.335938 4.375 -10.671875 C 4.375 -9.035156 4.726562 -7.546875 5.4375 -6.203125 C 6.144531 -4.867188 7.109375 -3.820312 8.328125 -3.0625 C 9.554688 -2.300781 10.921875 -1.921875 12.421875 -1.921875 C 13.921875 -1.921875 15.289062 -2.296875 16.53125 -3.046875 C 17.769531 -3.796875 18.734375 -4.835938 19.421875 -6.171875 C 20.117188 -7.503906 20.46875 -9.003906 20.46875 -10.671875 Z M 20.46875 -10.671875 "/></g></g></g><g fill="#000000" fill-opacity="1"><g transform="translate(307.220034, 374.633207)"><g><path d="M 27.46875 -21.46875 C 29.96875 -21.46875 31.804688 -20.695312 32.984375 -19.15625 C 34.171875 -17.613281 34.765625 -15.578125 34.765625 -13.046875 L 34.765625 -1.25 C 34.765625 -0.882812 34.644531 -0.582031 34.40625 -0.34375 C 34.175781 -0.113281 33.878906 0 33.515625 0 C 33.148438 0 32.847656 -0.113281 32.609375 -0.34375 C 32.378906 -0.582031 32.265625 -0.882812 32.265625 -1.25 L 32.265625 -12.921875 C 32.265625 -14.753906 31.828125 -16.25 30.953125 -17.40625 C 30.078125 -18.5625 28.722656 -19.140625 26.890625 -19.140625 C 25.722656 -19.140625 24.617188 -18.859375 23.578125 -18.296875 C 22.535156 -17.742188 21.691406 -16.988281 21.046875 -16.03125 C 20.410156 -15.070312 20.09375 -14.035156 20.09375 -12.921875 L 20.09375 -1.25 C 20.09375 -0.882812 19.972656 -0.582031 19.734375 -0.34375 C 19.503906 -0.113281 19.207031 0 18.84375 0 C 18.476562 0 18.175781 -0.113281 17.9375 -0.34375 C 17.707031 -0.582031 17.59375 -0.882812 17.59375 -1.25 L 17.59375 -13.046875 C 17.59375 -14.859375 17.175781 -16.328125 16.34375 -17.453125 C 15.507812 -18.578125 14.203125 -19.140625 12.421875 -19.140625 C 11.285156 -19.140625 10.207031 -18.859375 9.1875 -18.296875 C 8.175781 -17.742188 7.359375 -17 6.734375 -16.0625 C 6.109375 -15.132812 5.796875 -14.128906 5.796875 -13.046875 L 5.796875 -1.25 C 5.796875 -0.882812 5.675781 -0.582031 5.4375 -0.34375 C 5.195312 -0.113281 4.898438 0 4.546875 0 C 4.179688 0 3.878906 -0.113281 3.640625 -0.34375 C 3.410156 -0.582031 3.296875 -0.882812 3.296875 -1.25 L 3.296875 -19.921875 C 3.296875 -20.285156 3.410156 -20.582031 3.640625 -20.8125 C 3.878906 -21.050781 4.179688 -21.171875 4.546875 -21.171875 C 4.898438 -21.171875 5.195312 -21.050781 5.4375 -20.8125 C 5.675781 -20.582031 5.796875 -20.285156 5.796875 -19.921875 L 5.796875 -17.515625 C 6.546875 -18.648438 7.554688 -19.59375 8.828125 -20.34375 C 10.109375 -21.09375 11.457031 -21.46875 12.875 -21.46875 C 14.488281 -21.46875 15.878906 -21.078125 17.046875 -20.296875 C 18.210938 -19.523438 19.046875 -18.390625 19.546875 -16.890625 C 20.128906 -18.109375 21.195312 -19.175781 22.75 -20.09375 C 24.3125 -21.007812 25.882812 -21.46875 27.46875 -21.46875 Z M 27.46875 -21.46875 "/></g></g></g><g fill="#000000" fill-opacity="1"><g transform="translate(372.419781, 374.633207)"><g><path d="M 21.296875 -11.875 C 21.296875 -11.539062 21.171875 -11.253906 20.921875 -11.015625 C 20.671875 -10.785156 20.378906 -10.671875 20.046875 -10.671875 L 4.296875 -10.671875 C 4.296875 -9.003906 4.632812 -7.507812 5.3125 -6.1875 C 6 -4.863281 6.972656 -3.820312 8.234375 -3.0625 C 9.492188 -2.300781 10.988281 -1.921875 12.71875 -1.921875 C 14.050781 -1.921875 15.242188 -2.195312 16.296875 -2.75 C 17.359375 -3.300781 18.207031 -4.007812 18.84375 -4.875 C 19.144531 -5.125 19.4375 -5.25 19.71875 -5.25 C 20 -5.25 20.25 -5.132812 20.46875 -4.90625 C 20.6875 -4.6875 20.796875 -4.441406 20.796875 -4.171875 C 20.796875 -3.859375 20.660156 -3.566406 20.390625 -3.296875 C 19.492188 -2.210938 18.367188 -1.320312 17.015625 -0.625 C 15.671875 0.0703125 14.25 0.421875 12.75 0.421875 C 10.613281 0.421875 8.722656 -0.0351562 7.078125 -0.953125 C 5.441406 -1.867188 4.164062 -3.15625 3.25 -4.8125 C 2.332031 -6.46875 1.875 -8.378906 1.875 -10.546875 C 1.875 -12.828125 2.320312 -14.820312 3.21875 -16.53125 C 4.125 -18.238281 5.328125 -19.539062 6.828125 -20.4375 C 8.335938 -21.34375 9.9375 -21.796875 11.625 -21.796875 C 13.289062 -21.796875 14.851562 -21.40625 16.3125 -20.625 C 17.78125 -19.851562 18.972656 -18.71875 19.890625 -17.21875 C 20.804688 -15.71875 21.273438 -13.9375 21.296875 -11.875 Z M 11.625 -19.390625 C 10.019531 -19.390625 8.523438 -18.832031 7.140625 -17.71875 C 5.765625 -16.601562 4.882812 -15.003906 4.5 -12.921875 L 18.71875 -12.921875 L 18.71875 -13.25 C 18.582031 -14.5 18.164062 -15.585938 17.46875 -16.515625 C 16.769531 -17.453125 15.898438 -18.164062 14.859375 -18.65625 C 13.816406 -19.144531 12.738281 -19.390625 11.625 -19.390625 Z M 11.625 -19.390625 "/></g></g></g></svg>