<svg id="visual" viewBox="0 0 4000 600" width="4000" height="600" xmlns="http://www.w3.org/2000/svg" xmlns:xlink="http://www.w3.org/1999/xlink" version="1.1"><path d="M0 78L51.3 87.3C102.7 96.7 205.3 115.3 307.8 116.7C410.3 118 512.7 102 615.2 105.7C717.7 109.3 820.3 132.7 923 137.2C1025.7 141.7 1128.3 127.3 1230.8 109.3C1333.3 91.3 1435.7 69.7 1538.2 78.3C1640.7 87 1743.3 126 1846 129.7C1948.7 133.3 2051.3 101.7 2154 102.5C2256.7 103.3 2359.3 136.7 2461.8 140.5C2564.3 144.3 2666.7 118.7 2769.2 108.2C2871.7 97.7 2974.3 102.3 3077 109.8C3179.7 117.3 3282.3 127.7 3384.8 122C3487.3 116.3 3589.7 94.7 3692.2 80C3794.7 65.3 3897.3 57.7 3948.7 53.8L4000 50" fill="none" stroke="#00317A" stroke-width="99" stroke-linecap="round" stroke-linejoin="miter"></path></svg>